<?xml version="1.0" encoding="UTF-8" standalone="no"?>
<!DOCTYPE svg PUBLIC "-//W3C//DTD SVG 1.1//EN"
 "http://www.w3.org/Graphics/SVG/1.1/DTD/svg11.dtd">
<!-- Generated by graphviz version 3.0.0 (20220226.1711)
 -->
<!-- Title: dependencies Pages: 1 -->
<svg width="768pt" height="247pt"
 viewBox="0.00 0.00 768.00 246.80" xmlns="http://www.w3.org/2000/svg" xmlns:xlink="http://www.w3.org/1999/xlink">
<g id="graph0" class="graph" transform="scale(1 1) rotate(0) translate(4 242.8)">
<title>dependencies</title>
<polygon fill="white" stroke="transparent" points="-4,4 -4,-242.8 764,-242.8 764,4 -4,4"/>
<text text-anchor="middle" x="380" y="-8.2" font-family="sans-serif" font-size="14.00">dependencies</text>
<g id="clust1" class="cluster">
<title>cluster_CoreModule</title>
<polygon fill="none" stroke="black" stroke-dasharray="1,5" points="8,-32.8 8,-230.8 752,-230.8 752,-32.8 8,-32.8"/>
</g>
<g id="clust2" class="cluster">
<title>cluster_CoreModule_declarations</title>
<polygon fill="none" stroke="black" points="159,-40.8 159,-92.8 555,-92.8 555,-40.8 159,-40.8"/>
</g>
<g id="clust7" class="cluster">
<title>cluster_CoreModule_exports</title>
<polygon fill="none" stroke="black" points="16,-170.8 16,-222.8 744,-222.8 744,-170.8 16,-170.8"/>
</g>
<!-- FooterComponent -->
<g id="node1" class="node">
<title>FooterComponent</title>
<polygon fill="#ffffb3" stroke="black" points="546.88,-84.8 429.12,-84.8 429.12,-48.8 546.88,-48.8 546.88,-84.8"/>
<text text-anchor="middle" x="488" y="-62.6" font-family="Times,serif" font-size="14.00">FooterComponent</text>
</g>
<!-- CoreModule -->
<g id="node4" class="node">
<title>CoreModule</title>
<polygon fill="#8dd3c7" stroke="black" points="393.27,-149.8 390.27,-153.8 369.27,-153.8 366.27,-149.8 306.73,-149.8 306.73,-113.8 393.27,-113.8 393.27,-149.8"/>
<text text-anchor="middle" x="350" y="-127.6" font-family="Times,serif" font-size="14.00">CoreModule</text>
</g>
<!-- FooterComponent&#45;&gt;CoreModule -->
<g id="edge1" class="edge">
<title>FooterComponent&#45;&gt;CoreModule</title>
<path fill="none" stroke="black" d="M441.37,-84.83C441.37,-101.2 441.37,-122.8 441.37,-122.8 441.37,-122.8 403.28,-122.8 403.28,-122.8"/>
<polygon fill="black" stroke="black" points="403.28,-119.3 393.28,-122.8 403.28,-126.3 403.28,-119.3"/>
</g>
<!-- HeaderComponent -->
<g id="node2" class="node">
<title>HeaderComponent</title>
<polygon fill="#ffffb3" stroke="black" points="410.75,-84.8 289.25,-84.8 289.25,-48.8 410.75,-48.8 410.75,-84.8"/>
<text text-anchor="middle" x="350" y="-62.6" font-family="Times,serif" font-size="14.00">HeaderComponent</text>
</g>
<!-- HeaderComponent&#45;&gt;CoreModule -->
<g id="edge2" class="edge">
<title>HeaderComponent&#45;&gt;CoreModule</title>
<path fill="none" stroke="black" d="M350,-84.91C350,-84.91 350,-103.79 350,-103.79"/>
<polygon fill="black" stroke="black" points="346.5,-103.79 350,-113.79 353.5,-103.79 346.5,-103.79"/>
</g>
<!-- NavComponent -->
<g id="node3" class="node">
<title>NavComponent</title>
<polygon fill="#ffffb3" stroke="black" points="271.16,-84.8 166.84,-84.8 166.84,-48.8 271.16,-48.8 271.16,-84.8"/>
<text text-anchor="middle" x="219" y="-62.6" font-family="Times,serif" font-size="14.00">NavComponent</text>
</g>
<!-- NavComponent&#45;&gt;CoreModule -->
<g id="edge3" class="edge">
<title>NavComponent&#45;&gt;CoreModule</title>
<path fill="none" stroke="black" d="M258.54,-84.83C258.54,-101.2 258.54,-122.8 258.54,-122.8 258.54,-122.8 296.68,-122.8 296.68,-122.8"/>
<polygon fill="black" stroke="black" points="296.68,-126.3 306.68,-122.8 296.68,-119.3 296.68,-126.3"/>
</g>
<!-- FooterComponent  -->
<g id="node5" class="node">
<title>FooterComponent </title>
<polygon fill="#fb8072" stroke="black" points="735.88,-214.8 614.12,-214.8 614.12,-178.8 735.88,-178.8 735.88,-214.8"/>
<text text-anchor="middle" x="675" y="-192.6" font-family="Times,serif" font-size="14.00">FooterComponent </text>
</g>
<!-- CoreModule&#45;&gt;FooterComponent  -->
<g id="edge4" class="edge">
<title>CoreModule&#45;&gt;FooterComponent </title>
<path fill="none" stroke="black" stroke-dasharray="5,2" d="M393.49,-131.8C482.05,-131.8 675,-131.8 675,-131.8 675,-131.8 675,-168.69 675,-168.69"/>
<polygon fill="black" stroke="black" points="671.5,-168.69 675,-178.69 678.5,-168.69 671.5,-168.69"/>
</g>
<!-- HeaderComponent  -->
<g id="node6" class="node">
<title>HeaderComponent </title>
<polygon fill="#fb8072" stroke="black" points="596.75,-214.8 471.25,-214.8 471.25,-178.8 596.75,-178.8 596.75,-214.8"/>
<text text-anchor="middle" x="534" y="-192.6" font-family="Times,serif" font-size="14.00">HeaderComponent </text>
</g>
<!-- CoreModule&#45;&gt;HeaderComponent  -->
<g id="edge5" class="edge">
<title>CoreModule&#45;&gt;HeaderComponent </title>
<path fill="none" stroke="black" stroke-dasharray="5,2" d="M393.49,-140.8C440.62,-140.8 509.16,-140.8 509.16,-140.8 509.16,-140.8 509.16,-168.77 509.16,-168.77"/>
<polygon fill="black" stroke="black" points="505.66,-168.77 509.16,-178.77 512.66,-168.77 505.66,-168.77"/>
</g>
<!-- IconsModule  -->
<g id="node7" class="node">
<title>IconsModule </title>
<polygon fill="#fb8072" stroke="black" points="453.88,-214.8 360.12,-214.8 360.12,-178.8 453.88,-178.8 453.88,-214.8"/>
<text text-anchor="middle" x="407" y="-192.6" font-family="Times,serif" font-size="14.00">IconsModule </text>
</g>
<!-- CoreModule&#45;&gt;IconsModule  -->
<g id="edge6" class="edge">
<title>CoreModule&#45;&gt;IconsModule </title>
<path fill="none" stroke="black" stroke-dasharray="5,2" d="M376.85,-149.91C376.85,-149.91 376.85,-168.79 376.85,-168.79"/>
<polygon fill="black" stroke="black" points="373.35,-168.79 376.85,-178.79 380.35,-168.79 373.35,-168.79"/>
</g>
<!-- LoginModule  -->
<g id="node8" class="node">
<title>LoginModule </title>
<polygon fill="#fb8072" stroke="black" points="342.49,-214.8 245.51,-214.8 245.51,-178.8 342.49,-178.8 342.49,-214.8"/>
<text text-anchor="middle" x="294" y="-192.6" font-family="Times,serif" font-size="14.00">LoginModule </text>
</g>
<!-- CoreModule&#45;&gt;LoginModule  -->
<g id="edge7" class="edge">
<title>CoreModule&#45;&gt;LoginModule </title>
<path fill="none" stroke="black" stroke-dasharray="5,2" d="M324.43,-149.91C324.43,-149.91 324.43,-168.79 324.43,-168.79"/>
<polygon fill="black" stroke="black" points="320.93,-168.79 324.43,-178.79 327.93,-168.79 320.93,-168.79"/>
</g>
<!-- NavComponent  -->
<g id="node9" class="node">
<title>NavComponent </title>
<polygon fill="#fb8072" stroke="black" points="228.16,-214.8 119.84,-214.8 119.84,-178.8 228.16,-178.8 228.16,-214.8"/>
<text text-anchor="middle" x="174" y="-192.6" font-family="Times,serif" font-size="14.00">NavComponent </text>
</g>
<!-- CoreModule&#45;&gt;NavComponent  -->
<g id="edge8" class="edge">
<title>CoreModule&#45;&gt;NavComponent </title>
<path fill="none" stroke="black" stroke-dasharray="5,2" d="M306.67,-140.8C261.55,-140.8 197.38,-140.8 197.38,-140.8 197.38,-140.8 197.38,-168.77 197.38,-168.77"/>
<polygon fill="black" stroke="black" points="193.88,-168.77 197.38,-178.77 200.88,-168.77 193.88,-168.77"/>
</g>
<!-- UiModule  -->
<g id="node10" class="node">
<title>UiModule </title>
<polygon fill="#fb8072" stroke="black" points="101.55,-214.8 24.45,-214.8 24.45,-178.8 101.55,-178.8 101.55,-214.8"/>
<text text-anchor="middle" x="63" y="-192.6" font-family="Times,serif" font-size="14.00">UiModule </text>
</g>
<!-- CoreModule&#45;&gt;UiModule  -->
<g id="edge9" class="edge">
<title>CoreModule&#45;&gt;UiModule </title>
<path fill="none" stroke="black" stroke-dasharray="5,2" d="M306.72,-131.8C226.55,-131.8 63,-131.8 63,-131.8 63,-131.8 63,-168.69 63,-168.69"/>
<polygon fill="black" stroke="black" points="59.5,-168.69 63,-178.69 66.5,-168.69 59.5,-168.69"/>
</g>
</g>
</svg>
