<?xml version="1.0" encoding="UTF-8" standalone="no"?>
<!DOCTYPE svg PUBLIC "-//W3C//DTD SVG 1.1//EN"
 "http://www.w3.org/Graphics/SVG/1.1/DTD/svg11.dtd">
<!-- Generated by graphviz version 3.0.0 (20220226.1711)
 -->
<!-- Title: dependencies Pages: 1 -->
<svg width="577pt" height="247pt"
 viewBox="0.00 0.00 577.00 246.80" xmlns="http://www.w3.org/2000/svg" xmlns:xlink="http://www.w3.org/1999/xlink">
<g id="graph0" class="graph" transform="scale(1 1) rotate(0) translate(4 242.8)">
<title>dependencies</title>
<polygon fill="white" stroke="transparent" points="-4,4 -4,-242.8 573,-242.8 573,4 -4,4"/>
<text text-anchor="middle" x="284.5" y="-8.2" font-family="sans-serif" font-size="14.00">dependencies</text>
<g id="clust1" class="cluster">
<title>cluster_SharedModule</title>
<polygon fill="none" stroke="black" stroke-dasharray="1,5" points="8,-32.8 8,-230.8 561,-230.8 561,-32.8 8,-32.8"/>
</g>
<g id="clust2" class="cluster">
<title>cluster_SharedModule_declarations</title>
<polygon fill="none" stroke="black" points="156,-40.8 156,-92.8 436,-92.8 436,-40.8 156,-40.8"/>
</g>
<g id="clust6" class="cluster">
<title>cluster_SharedModule_exports</title>
<polygon fill="none" stroke="black" points="16,-170.8 16,-222.8 553,-222.8 553,-170.8 16,-170.8"/>
</g>
<!-- BtnComponent -->
<g id="node1" class="node">
<title>BtnComponent</title>
<polygon fill="#ffffb3" stroke="black" points="427.56,-84.8 326.44,-84.8 326.44,-48.8 427.56,-48.8 427.56,-84.8"/>
<text text-anchor="middle" x="377" y="-62.6" font-family="Times,serif" font-size="14.00">BtnComponent</text>
</g>
<!-- SharedModule -->
<g id="node3" class="node">
<title>SharedModule</title>
<polygon fill="#8dd3c7" stroke="black" points="355.43,-149.8 352.43,-153.8 331.43,-153.8 328.43,-149.8 256.57,-149.8 256.57,-113.8 355.43,-113.8 355.43,-149.8"/>
<text text-anchor="middle" x="306" y="-127.6" font-family="Times,serif" font-size="14.00">SharedModule</text>
</g>
<!-- BtnComponent&#45;&gt;SharedModule -->
<g id="edge1" class="edge">
<title>BtnComponent&#45;&gt;SharedModule</title>
<path fill="none" stroke="black" d="M340.72,-84.91C340.72,-84.91 340.72,-103.79 340.72,-103.79"/>
<polygon fill="black" stroke="black" points="337.22,-103.79 340.72,-113.79 344.22,-103.79 337.22,-103.79"/>
</g>
<!-- TableLightComponent -->
<g id="node2" class="node">
<title>TableLightComponent</title>
<polygon fill="#ffffb3" stroke="black" points="307.53,-84.8 164.47,-84.8 164.47,-48.8 307.53,-48.8 307.53,-84.8"/>
<text text-anchor="middle" x="236" y="-62.6" font-family="Times,serif" font-size="14.00">TableLightComponent</text>
</g>
<!-- TableLightComponent&#45;&gt;SharedModule -->
<g id="edge2" class="edge">
<title>TableLightComponent&#45;&gt;SharedModule</title>
<path fill="none" stroke="black" d="M282.28,-84.91C282.28,-84.91 282.28,-103.79 282.28,-103.79"/>
<polygon fill="black" stroke="black" points="278.78,-103.79 282.28,-113.79 285.78,-103.79 278.78,-103.79"/>
</g>
<!-- BtnComponent  -->
<g id="node4" class="node">
<title>BtnComponent </title>
<polygon fill="#fb8072" stroke="black" points="544.56,-214.8 439.44,-214.8 439.44,-178.8 544.56,-178.8 544.56,-214.8"/>
<text text-anchor="middle" x="492" y="-192.6" font-family="Times,serif" font-size="14.00">BtnComponent </text>
</g>
<!-- SharedModule&#45;&gt;BtnComponent  -->
<g id="edge3" class="edge">
<title>SharedModule&#45;&gt;BtnComponent </title>
<path fill="none" stroke="black" stroke-dasharray="5,2" d="M355.36,-131.8C410.46,-131.8 492,-131.8 492,-131.8 492,-131.8 492,-168.69 492,-168.69"/>
<polygon fill="black" stroke="black" points="488.5,-168.69 492,-178.69 495.5,-168.69 488.5,-168.69"/>
</g>
<!-- IconsModule  -->
<g id="node5" class="node">
<title>IconsModule </title>
<polygon fill="#fb8072" stroke="black" points="421.88,-214.8 328.12,-214.8 328.12,-178.8 421.88,-178.8 421.88,-214.8"/>
<text text-anchor="middle" x="375" y="-192.6" font-family="Times,serif" font-size="14.00">IconsModule </text>
</g>
<!-- SharedModule&#45;&gt;IconsModule  -->
<g id="edge4" class="edge">
<title>SharedModule&#45;&gt;IconsModule </title>
<path fill="none" stroke="black" stroke-dasharray="5,2" d="M341.76,-149.91C341.76,-149.91 341.76,-168.79 341.76,-168.79"/>
<polygon fill="black" stroke="black" points="338.26,-168.79 341.76,-178.79 345.26,-168.79 338.26,-168.79"/>
</g>
<!-- TableLightComponent  -->
<g id="node6" class="node">
<title>TableLightComponent </title>
<polygon fill="#fb8072" stroke="black" points="310.53,-214.8 163.47,-214.8 163.47,-178.8 310.53,-178.8 310.53,-214.8"/>
<text text-anchor="middle" x="237" y="-192.6" font-family="Times,serif" font-size="14.00">TableLightComponent </text>
</g>
<!-- SharedModule&#45;&gt;TableLightComponent  -->
<g id="edge5" class="edge">
<title>SharedModule&#45;&gt;TableLightComponent </title>
<path fill="none" stroke="black" stroke-dasharray="5,2" d="M283.65,-149.91C283.65,-149.91 283.65,-168.79 283.65,-168.79"/>
<polygon fill="black" stroke="black" points="280.15,-168.79 283.65,-178.79 287.15,-168.79 280.15,-168.79"/>
</g>
<!-- TemplatesModule  -->
<g id="node7" class="node">
<title>TemplatesModule </title>
<polygon fill="#fb8072" stroke="black" points="145.86,-214.8 24.14,-214.8 24.14,-178.8 145.86,-178.8 145.86,-214.8"/>
<text text-anchor="middle" x="85" y="-192.6" font-family="Times,serif" font-size="14.00">TemplatesModule </text>
</g>
<!-- SharedModule&#45;&gt;TemplatesModule  -->
<g id="edge6" class="edge">
<title>SharedModule&#45;&gt;TemplatesModule </title>
<path fill="none" stroke="black" stroke-dasharray="5,2" d="M256.68,-131.8C191.54,-131.8 85,-131.8 85,-131.8 85,-131.8 85,-168.69 85,-168.69"/>
<polygon fill="black" stroke="black" points="81.5,-168.69 85,-178.69 88.5,-168.69 81.5,-168.69"/>
</g>
</g>
</svg>
