<?xml version="1.0" encoding="UTF-8" standalone="no"?>
<!DOCTYPE svg PUBLIC "-//W3C//DTD SVG 1.1//EN"
 "http://www.w3.org/Graphics/SVG/1.1/DTD/svg11.dtd">
<!-- Generated by graphviz version 3.0.0 (20220226.1711)
 -->
<!-- Title: dependencies Pages: 1 -->
<svg width="992pt" height="174pt"
 viewBox="0.00 0.00 992.00 173.80" xmlns="http://www.w3.org/2000/svg" xmlns:xlink="http://www.w3.org/1999/xlink">
<g id="graph0" class="graph" transform="scale(1 1) rotate(0) translate(4 169.8)">
<title>dependencies</title>
<polygon fill="white" stroke="transparent" points="-4,4 -4,-169.8 988,-169.8 988,4 -4,4"/>
<text text-anchor="middle" x="492" y="-8.2" font-family="sans-serif" font-size="14.00">dependencies</text>
<g id="clust1" class="cluster">
<title>cluster_LoginModule</title>
<polygon fill="none" stroke="black" stroke-dasharray="1,5" points="8,-32.8 8,-157.8 976,-157.8 976,-32.8 8,-32.8"/>
</g>
<g id="clust2" class="cluster">
<title>cluster_LoginModule_declarations</title>
<polygon fill="none" stroke="black" points="314,-40.8 314,-92.8 968,-92.8 968,-40.8 314,-40.8"/>
</g>
<g id="clust7" class="cluster">
<title>cluster_LoginModule_imports</title>
<polygon fill="none" stroke="black" points="16,-40.8 16,-92.8 306,-92.8 306,-40.8 16,-40.8"/>
</g>
<!-- PageForgotComponent -->
<g id="node1" class="node">
<title>PageForgotComponent</title>
<polygon fill="#ffffb3" stroke="black" points="959.88,-84.8 814.12,-84.8 814.12,-48.8 959.88,-48.8 959.88,-84.8"/>
<text text-anchor="middle" x="887" y="-62.6" font-family="Times,serif" font-size="14.00">PageForgotComponent</text>
</g>
<!-- LoginModule -->
<g id="node5" class="node">
<title>LoginModule</title>
<polygon fill="#8dd3c7" stroke="black" points="527.49,-149.8 524.49,-153.8 503.49,-153.8 500.49,-149.8 434.51,-149.8 434.51,-113.8 527.49,-113.8 527.49,-149.8"/>
<text text-anchor="middle" x="481" y="-127.6" font-family="Times,serif" font-size="14.00">LoginModule</text>
</g>
<!-- PageForgotComponent&#45;&gt;LoginModule -->
<g id="edge1" class="edge">
<title>PageForgotComponent&#45;&gt;LoginModule</title>
<path fill="none" stroke="black" d="M887,-85.08C887,-106.12 887,-137.8 887,-137.8 887,-137.8 537.57,-137.8 537.57,-137.8"/>
<polygon fill="black" stroke="black" points="537.57,-134.3 527.57,-137.8 537.57,-141.3 537.57,-134.3"/>
</g>
<!-- PageResetComponent -->
<g id="node2" class="node">
<title>PageResetComponent</title>
<polygon fill="#ffffb3" stroke="black" points="795.65,-84.8 656.35,-84.8 656.35,-48.8 795.65,-48.8 795.65,-84.8"/>
<text text-anchor="middle" x="726" y="-62.6" font-family="Times,serif" font-size="14.00">PageResetComponent</text>
</g>
<!-- PageResetComponent&#45;&gt;LoginModule -->
<g id="edge2" class="edge">
<title>PageResetComponent&#45;&gt;LoginModule</title>
<path fill="none" stroke="black" d="M726,-84.82C726,-102.17 726,-125.8 726,-125.8 726,-125.8 537.66,-125.8 537.66,-125.8"/>
<polygon fill="black" stroke="black" points="537.66,-122.3 527.66,-125.8 537.66,-129.3 537.66,-122.3"/>
</g>
<!-- PageSignInComponent -->
<g id="node3" class="node">
<title>PageSignInComponent</title>
<polygon fill="#ffffb3" stroke="black" points="637.88,-84.8 492.12,-84.8 492.12,-48.8 637.88,-48.8 637.88,-84.8"/>
<text text-anchor="middle" x="565" y="-62.6" font-family="Times,serif" font-size="14.00">PageSignInComponent</text>
</g>
<!-- PageSignInComponent&#45;&gt;LoginModule -->
<g id="edge3" class="edge">
<title>PageSignInComponent&#45;&gt;LoginModule</title>
<path fill="none" stroke="black" d="M509.78,-84.91C509.78,-84.91 509.78,-103.79 509.78,-103.79"/>
<polygon fill="black" stroke="black" points="506.28,-103.79 509.78,-113.79 513.28,-103.79 506.28,-103.79"/>
</g>
<!-- PageSignUpComponent -->
<g id="node4" class="node">
<title>PageSignUpComponent</title>
<polygon fill="#ffffb3" stroke="black" points="473.83,-84.8 322.17,-84.8 322.17,-48.8 473.83,-48.8 473.83,-84.8"/>
<text text-anchor="middle" x="398" y="-62.6" font-family="Times,serif" font-size="14.00">PageSignUpComponent</text>
</g>
<!-- PageSignUpComponent&#45;&gt;LoginModule -->
<g id="edge4" class="edge">
<title>PageSignUpComponent&#45;&gt;LoginModule</title>
<path fill="none" stroke="black" d="M454.08,-84.91C454.08,-84.91 454.08,-103.79 454.08,-103.79"/>
<polygon fill="black" stroke="black" points="450.58,-103.79 454.08,-113.79 457.58,-103.79 450.58,-103.79"/>
</g>
<!-- LoginRoutingModule -->
<g id="node6" class="node">
<title>LoginRoutingModule</title>
<polygon fill="#8dd3c7" stroke="black" points="298.11,-84.8 295.11,-88.8 274.11,-88.8 271.11,-84.8 159.89,-84.8 159.89,-48.8 298.11,-48.8 298.11,-84.8"/>
<text text-anchor="middle" x="229" y="-62.6" font-family="Times,serif" font-size="14.00">LoginRoutingModule</text>
</g>
<!-- LoginRoutingModule&#45;&gt;LoginModule -->
<g id="edge5" class="edge">
<title>LoginRoutingModule&#45;&gt;LoginModule</title>
<path fill="none" stroke="black" d="M229,-84.82C229,-102.17 229,-125.8 229,-125.8 229,-125.8 424.49,-125.8 424.49,-125.8"/>
<polygon fill="black" stroke="black" points="424.49,-129.3 434.49,-125.8 424.49,-122.3 424.49,-129.3"/>
</g>
<!-- TemplatesModule -->
<g id="node7" class="node">
<title>TemplatesModule</title>
<polygon fill="#8dd3c7" stroke="black" points="141.86,-84.8 138.86,-88.8 117.86,-88.8 114.86,-84.8 24.14,-84.8 24.14,-48.8 141.86,-48.8 141.86,-84.8"/>
<text text-anchor="middle" x="83" y="-62.6" font-family="Times,serif" font-size="14.00">TemplatesModule</text>
</g>
<!-- TemplatesModule&#45;&gt;LoginModule -->
<g id="edge6" class="edge">
<title>TemplatesModule&#45;&gt;LoginModule</title>
<path fill="none" stroke="black" d="M83,-85.08C83,-106.12 83,-137.8 83,-137.8 83,-137.8 424.17,-137.8 424.17,-137.8"/>
<polygon fill="black" stroke="black" points="424.17,-141.3 434.17,-137.8 424.17,-134.3 424.17,-141.3"/>
</g>
</g>
</svg>
