<?xml version="1.0" encoding="UTF-8" standalone="no"?>
<!DOCTYPE svg PUBLIC "-//W3C//DTD SVG 1.1//EN"
 "http://www.w3.org/Graphics/SVG/1.1/DTD/svg11.dtd">
<!-- Generated by graphviz version 3.0.0 (20220226.1711)
 -->
<!-- Title: dependencies Pages: 1 -->
<svg width="7090pt" height="253pt"
 viewBox="0.00 0.00 7090.00 252.80" xmlns="http://www.w3.org/2000/svg" xmlns:xlink="http://www.w3.org/1999/xlink">
<g id="graph0" class="graph" transform="scale(1 1) rotate(0) translate(4 248.8)">
<title>dependencies</title>
<polygon fill="white" stroke="transparent" points="-4,4 -4,-248.8 7086,-248.8 7086,4 -4,4"/>
<text text-anchor="middle" x="3541" y="-8.2" font-family="sans-serif" font-size="14.00">dependencies</text>
<g id="clust1" class="cluster">
<title>cluster_AppModule</title>
<polygon fill="none" stroke="black" stroke-dasharray="1,5" points="8,-32.8 8,-236.8 403,-236.8 403,-32.8 8,-32.8"/>
</g>
<g id="clust2" class="cluster">
<title>cluster_AppModule_declarations</title>
<polygon fill="none" stroke="black" points="16,-40.8 16,-92.8 138,-92.8 138,-40.8 16,-40.8"/>
</g>
<g id="clust4" class="cluster">
<title>cluster_AppModule_imports</title>
<polygon fill="none" stroke="black" points="146,-40.8 146,-92.8 395,-92.8 395,-40.8 146,-40.8"/>
</g>
<g id="clust6" class="cluster">
<title>cluster_AppModule_bootstrap</title>
<polygon fill="none" stroke="black" points="156,-176.8 156,-228.8 280,-228.8 280,-176.8 156,-176.8"/>
</g>
<g id="clust14" class="cluster">
<title>cluster_ClientsModule</title>
<polygon fill="none" stroke="black" stroke-dasharray="1,5" points="3161,-32.8 3161,-160.8 3899,-160.8 3899,-32.8 3161,-32.8"/>
</g>
<g id="clust15" class="cluster">
<title>cluster_ClientsModule_declarations</title>
<polygon fill="none" stroke="black" points="3337,-40.8 3337,-92.8 3891,-92.8 3891,-40.8 3337,-40.8"/>
</g>
<g id="clust19" class="cluster">
<title>cluster_ClientsModule_imports</title>
<polygon fill="none" stroke="black" points="3169,-40.8 3169,-92.8 3329,-92.8 3329,-40.8 3169,-40.8"/>
</g>
<g id="clust29" class="cluster">
<title>cluster_CoreModule</title>
<polygon fill="none" stroke="black" stroke-dasharray="1,5" points="411,-100.8 411,-168.8 1558,-168.8 1558,-100.8 411,-100.8"/>
</g>
<g id="clust30" class="cluster">
<title>cluster_CoreModule_declarations</title>
<polygon fill="none" stroke="black" points="419,-108.8 419,-160.8 815,-160.8 815,-108.8 419,-108.8"/>
</g>
<g id="clust35" class="cluster">
<title>cluster_CoreModule_exports</title>
<polygon fill="none" stroke="black" points="823,-108.8 823,-160.8 1550,-160.8 1550,-108.8 823,-108.8"/>
</g>
<g id="clust38" class="cluster">
<title>cluster_IconsModule</title>
<polygon fill="none" stroke="black" stroke-dasharray="1,5" points="3907,-32.8 3907,-236.8 4548,-236.8 4548,-32.8 3907,-32.8"/>
</g>
<g id="clust39" class="cluster">
<title>cluster_IconsModule_declarations</title>
<polygon fill="none" stroke="black" points="3925,-40.8 3925,-92.8 4535,-92.8 4535,-40.8 3925,-40.8"/>
</g>
<g id="clust45" class="cluster">
<title>cluster_IconsModule_exports</title>
<polygon fill="none" stroke="black" points="3915,-176.8 3915,-228.8 4540,-228.8 4540,-176.8 3915,-176.8"/>
</g>
<g id="clust48" class="cluster">
<title>cluster_LoginModule</title>
<polygon fill="none" stroke="black" stroke-dasharray="1,5" points="4556,-32.8 4556,-160.8 5524,-160.8 5524,-32.8 4556,-32.8"/>
</g>
<g id="clust49" class="cluster">
<title>cluster_LoginModule_declarations</title>
<polygon fill="none" stroke="black" points="4564,-40.8 4564,-92.8 5218,-92.8 5218,-40.8 4564,-40.8"/>
</g>
<g id="clust54" class="cluster">
<title>cluster_LoginModule_imports</title>
<polygon fill="none" stroke="black" points="5226,-40.8 5226,-92.8 5516,-92.8 5516,-40.8 5226,-40.8"/>
</g>
<g id="clust64" class="cluster">
<title>cluster_OrdersModule</title>
<polygon fill="none" stroke="black" stroke-dasharray="1,5" points="1566,-32.8 1566,-160.8 2415,-160.8 2415,-32.8 1566,-32.8"/>
</g>
<g id="clust65" class="cluster">
<title>cluster_OrdersModule_declarations</title>
<polygon fill="none" stroke="black" points="1574,-40.8 1574,-92.8 2124,-92.8 2124,-40.8 1574,-40.8"/>
</g>
<g id="clust69" class="cluster">
<title>cluster_OrdersModule_imports</title>
<polygon fill="none" stroke="black" points="2132,-40.8 2132,-92.8 2407,-92.8 2407,-40.8 2132,-40.8"/>
</g>
<g id="clust79" class="cluster">
<title>cluster_PageNotFoundModule</title>
<polygon fill="none" stroke="black" stroke-dasharray="1,5" points="6402,-32.8 6402,-160.8 6812,-160.8 6812,-32.8 6402,-32.8"/>
</g>
<g id="clust80" class="cluster">
<title>cluster_PageNotFoundModule_declarations</title>
<polygon fill="none" stroke="black" points="6622,-40.8 6622,-92.8 6804,-92.8 6804,-40.8 6622,-40.8"/>
</g>
<g id="clust82" class="cluster">
<title>cluster_PageNotFoundModule_imports</title>
<polygon fill="none" stroke="black" points="6410,-40.8 6410,-92.8 6614,-92.8 6614,-40.8 6410,-40.8"/>
</g>
<g id="clust92" class="cluster">
<title>cluster_SharedModule</title>
<polygon fill="none" stroke="black" stroke-dasharray="1,5" points="2423,-100.8 2423,-168.8 3153,-168.8 3153,-100.8 2423,-100.8"/>
</g>
<g id="clust93" class="cluster">
<title>cluster_SharedModule_declarations</title>
<polygon fill="none" stroke="black" points="2865,-108.8 2865,-160.8 3145,-160.8 3145,-108.8 2865,-108.8"/>
</g>
<g id="clust97" class="cluster">
<title>cluster_SharedModule_exports</title>
<polygon fill="none" stroke="black" points="2431,-108.8 2431,-160.8 2857,-160.8 2857,-108.8 2431,-108.8"/>
</g>
<g id="clust100" class="cluster">
<title>cluster_TemplatesModule</title>
<polygon fill="none" stroke="black" stroke-dasharray="1,5" points="5532,-100.8 5532,-168.8 6394,-168.8 6394,-100.8 5532,-100.8"/>
</g>
<g id="clust101" class="cluster">
<title>cluster_TemplatesModule_declarations</title>
<polygon fill="none" stroke="black" points="5970,-108.8 5970,-160.8 6386,-160.8 6386,-108.8 5970,-108.8"/>
</g>
<g id="clust105" class="cluster">
<title>cluster_TemplatesModule_exports</title>
<polygon fill="none" stroke="black" points="5540,-108.8 5540,-160.8 5962,-160.8 5962,-108.8 5540,-108.8"/>
</g>
<g id="clust108" class="cluster">
<title>cluster_UiModule</title>
<polygon fill="none" stroke="black" stroke-dasharray="1,5" points="6820,-32.8 6820,-236.8 7074,-236.8 7074,-32.8 6820,-32.8"/>
</g>
<g id="clust109" class="cluster">
<title>cluster_UiModule_declarations</title>
<polygon fill="none" stroke="black" points="6832,-40.8 6832,-92.8 7064,-92.8 7064,-40.8 6832,-40.8"/>
</g>
<g id="clust113" class="cluster">
<title>cluster_UiModule_exports</title>
<polygon fill="none" stroke="black" points="6828,-176.8 6828,-228.8 7066,-228.8 7066,-176.8 6828,-176.8"/>
</g>
<!-- AppComponent -->
<g id="node1" class="node">
<title>AppComponent</title>
<polygon fill="#ffffb3" stroke="black" points="129.94,-84.8 24.06,-84.8 24.06,-48.8 129.94,-48.8 129.94,-84.8"/>
<text text-anchor="middle" x="77" y="-62.6" font-family="Times,serif" font-size="14.00">AppComponent</text>
</g>
<!-- AppModule -->
<g id="node2" class="node">
<title>AppModule</title>
<polygon fill="#8dd3c7" stroke="black" points="259.66,-152.8 256.66,-156.8 235.66,-156.8 232.66,-152.8 176.34,-152.8 176.34,-116.8 259.66,-116.8 259.66,-152.8"/>
<text text-anchor="middle" x="218" y="-130.6" font-family="Times,serif" font-size="14.00">AppModule</text>
</g>
<!-- AppComponent&#45;&gt;AppModule -->
<g id="edge1" class="edge">
<title>AppComponent&#45;&gt;AppModule</title>
<path fill="none" stroke="black" d="M77,-85.02C77,-105.17 77,-134.8 77,-134.8 77,-134.8 166.08,-134.8 166.08,-134.8"/>
<polygon fill="black" stroke="black" points="166.08,-138.3 176.08,-134.8 166.08,-131.3 166.08,-138.3"/>
</g>
<!-- AppComponent  -->
<g id="node5" class="node">
<title>AppComponent </title>
<polygon fill="#80b1d3" stroke="black" points="272.44,-220.8 163.56,-220.8 163.56,-184.8 272.44,-184.8 272.44,-220.8"/>
<text text-anchor="middle" x="218" y="-198.6" font-family="Times,serif" font-size="14.00">AppComponent </text>
</g>
<!-- AppModule&#45;&gt;AppComponent  -->
<g id="edge4" class="edge">
<title>AppModule&#45;&gt;AppComponent </title>
<path fill="none" stroke="black" stroke-dasharray="1,5" d="M218,-153.02C218,-153.02 218,-174.53 218,-174.53"/>
<polygon fill="black" stroke="black" points="214.5,-174.53 218,-184.53 221.5,-174.53 214.5,-174.53"/>
</g>
<!-- AppRoutingModule -->
<g id="node3" class="node">
<title>AppRoutingModule</title>
<polygon fill="#8dd3c7" stroke="black" points="282.28,-84.8 279.28,-88.8 258.28,-88.8 255.28,-84.8 153.72,-84.8 153.72,-48.8 282.28,-48.8 282.28,-84.8"/>
<text text-anchor="middle" x="218" y="-62.6" font-family="Times,serif" font-size="14.00">AppRoutingModule</text>
</g>
<!-- AppRoutingModule&#45;&gt;AppModule -->
<g id="edge2" class="edge">
<title>AppRoutingModule&#45;&gt;AppModule</title>
<path fill="none" stroke="black" d="M218,-85.02C218,-85.02 218,-106.53 218,-106.53"/>
<polygon fill="black" stroke="black" points="214.5,-106.53 218,-116.53 221.5,-106.53 214.5,-106.53"/>
</g>
<!-- CoreModule -->
<g id="node4" class="node">
<title>CoreModule</title>
<polygon fill="#8dd3c7" stroke="black" points="387.27,-84.8 384.27,-88.8 363.27,-88.8 360.27,-84.8 300.73,-84.8 300.73,-48.8 387.27,-48.8 387.27,-84.8"/>
<text text-anchor="middle" x="344" y="-62.6" font-family="Times,serif" font-size="14.00">CoreModule</text>
</g>
<!-- CoreModule&#45;&gt;AppModule -->
<g id="edge3" class="edge">
<title>CoreModule&#45;&gt;AppModule</title>
<path fill="none" stroke="black" d="M329.54,-85.09C329.54,-107.01 329.54,-140.8 329.54,-140.8 329.54,-140.8 269.85,-140.8 269.85,-140.8"/>
<polygon fill="black" stroke="black" points="269.85,-137.3 259.85,-140.8 269.85,-144.3 269.85,-137.3"/>
</g>
<!-- FooterComponent  -->
<g id="node14" class="node">
<title>FooterComponent </title>
<polygon fill="#fb8072" stroke="black" points="1430.88,-152.8 1309.12,-152.8 1309.12,-116.8 1430.88,-116.8 1430.88,-152.8"/>
<text text-anchor="middle" x="1370" y="-130.6" font-family="Times,serif" font-size="14.00">FooterComponent </text>
</g>
<!-- CoreModule&#45;&gt;FooterComponent  -->
<g id="edge12" class="edge">
<title>CoreModule&#45;&gt;FooterComponent </title>
<path fill="none" stroke="black" stroke-dasharray="5,2" d="M387.43,-56.8C582.71,-56.8 1370,-56.8 1370,-56.8 1370,-56.8 1370,-106.71 1370,-106.71"/>
<polygon fill="black" stroke="black" points="1366.5,-106.71 1370,-116.71 1373.5,-106.71 1366.5,-106.71"/>
</g>
<!-- HeaderComponent  -->
<g id="node15" class="node">
<title>HeaderComponent </title>
<polygon fill="#fb8072" stroke="black" points="1291.75,-152.8 1166.25,-152.8 1166.25,-116.8 1291.75,-116.8 1291.75,-152.8"/>
<text text-anchor="middle" x="1229" y="-130.6" font-family="Times,serif" font-size="14.00">HeaderComponent </text>
</g>
<!-- CoreModule&#45;&gt;HeaderComponent  -->
<g id="edge13" class="edge">
<title>CoreModule&#45;&gt;HeaderComponent </title>
<path fill="none" stroke="black" stroke-dasharray="5,2" d="M387.28,-60.8C564.97,-60.8 1229,-60.8 1229,-60.8 1229,-60.8 1229,-106.51 1229,-106.51"/>
<polygon fill="black" stroke="black" points="1225.5,-106.51 1229,-116.51 1232.5,-106.51 1225.5,-106.51"/>
</g>
<!-- IconsModule  -->
<g id="node16" class="node">
<title>IconsModule </title>
<polygon fill="#fb8072" stroke="black" points="1541.88,-152.8 1448.12,-152.8 1448.12,-116.8 1541.88,-116.8 1541.88,-152.8"/>
<text text-anchor="middle" x="1495" y="-130.6" font-family="Times,serif" font-size="14.00">IconsModule </text>
</g>
<!-- CoreModule&#45;&gt;IconsModule  -->
<g id="edge14" class="edge">
<title>CoreModule&#45;&gt;IconsModule </title>
<path fill="none" stroke="black" stroke-dasharray="5,2" d="M387.47,-52.8C595.5,-52.8 1479.44,-52.8 1479.44,-52.8 1479.44,-52.8 1479.44,-106.6 1479.44,-106.6"/>
<polygon fill="black" stroke="black" points="1475.94,-106.6 1479.44,-116.6 1482.94,-106.6 1475.94,-106.6"/>
</g>
<!-- LoginModule  -->
<g id="node17" class="node">
<title>LoginModule </title>
<polygon fill="#fb8072" stroke="black" points="1053.49,-152.8 956.51,-152.8 956.51,-116.8 1053.49,-116.8 1053.49,-152.8"/>
<text text-anchor="middle" x="1005" y="-130.6" font-family="Times,serif" font-size="14.00">LoginModule </text>
</g>
<!-- CoreModule&#45;&gt;LoginModule  -->
<g id="edge15" class="edge">
<title>CoreModule&#45;&gt;LoginModule </title>
<path fill="none" stroke="black" stroke-dasharray="5,2" d="M387.37,-68.8C534.42,-68.8 1005,-68.8 1005,-68.8 1005,-68.8 1005,-106.77 1005,-106.77"/>
<polygon fill="black" stroke="black" points="1001.5,-106.77 1005,-116.77 1008.5,-106.77 1001.5,-106.77"/>
</g>
<!-- NavComponent  -->
<g id="node18" class="node">
<title>NavComponent </title>
<polygon fill="#fb8072" stroke="black" points="939.16,-152.8 830.84,-152.8 830.84,-116.8 939.16,-116.8 939.16,-152.8"/>
<text text-anchor="middle" x="885" y="-130.6" font-family="Times,serif" font-size="14.00">NavComponent </text>
</g>
<!-- CoreModule&#45;&gt;NavComponent  -->
<g id="edge16" class="edge">
<title>CoreModule&#45;&gt;NavComponent </title>
<path fill="none" stroke="black" stroke-dasharray="5,2" d="M387.36,-72.8C515.74,-72.8 885,-72.8 885,-72.8 885,-72.8 885,-106.53 885,-106.53"/>
<polygon fill="black" stroke="black" points="881.5,-106.53 885,-116.53 888.5,-106.53 881.5,-106.53"/>
</g>
<!-- UiModule  -->
<g id="node19" class="node">
<title>UiModule </title>
<polygon fill="#fb8072" stroke="black" points="1148.55,-152.8 1071.45,-152.8 1071.45,-116.8 1148.55,-116.8 1148.55,-152.8"/>
<text text-anchor="middle" x="1110" y="-130.6" font-family="Times,serif" font-size="14.00">UiModule </text>
</g>
<!-- CoreModule&#45;&gt;UiModule  -->
<g id="edge17" class="edge">
<title>CoreModule&#45;&gt;UiModule </title>
<path fill="none" stroke="black" stroke-dasharray="5,2" d="M387.38,-64.8C549.42,-64.8 1110,-64.8 1110,-64.8 1110,-64.8 1110,-106.77 1110,-106.77"/>
<polygon fill="black" stroke="black" points="1106.5,-106.77 1110,-116.77 1113.5,-106.77 1106.5,-106.77"/>
</g>
<!-- PageAddClientComponent -->
<g id="node6" class="node">
<title>PageAddClientComponent</title>
<polygon fill="#ffffb3" stroke="black" points="3695.38,-84.8 3528.62,-84.8 3528.62,-48.8 3695.38,-48.8 3695.38,-84.8"/>
<text text-anchor="middle" x="3612" y="-62.6" font-family="Times,serif" font-size="14.00">PageAddClientComponent</text>
</g>
<!-- ClientsModule -->
<g id="node9" class="node">
<title>ClientsModule</title>
<polygon fill="#8dd3c7" stroke="black" points="3569.72,-152.8 3566.72,-156.8 3545.72,-156.8 3542.72,-152.8 3470.28,-152.8 3470.28,-116.8 3569.72,-116.8 3569.72,-152.8"/>
<text text-anchor="middle" x="3520" y="-130.6" font-family="Times,serif" font-size="14.00">ClientsModule</text>
</g>
<!-- PageAddClientComponent&#45;&gt;ClientsModule -->
<g id="edge5" class="edge">
<title>PageAddClientComponent&#45;&gt;ClientsModule</title>
<path fill="none" stroke="black" d="M3549.09,-85.02C3549.09,-85.02 3549.09,-106.53 3549.09,-106.53"/>
<polygon fill="black" stroke="black" points="3545.59,-106.53 3549.09,-116.53 3552.59,-106.53 3545.59,-106.53"/>
</g>
<!-- PageEditClientComponent -->
<g id="node7" class="node">
<title>PageEditClientComponent</title>
<polygon fill="#ffffb3" stroke="black" points="3511.1,-84.8 3344.9,-84.8 3344.9,-48.8 3511.1,-48.8 3511.1,-84.8"/>
<text text-anchor="middle" x="3428" y="-62.6" font-family="Times,serif" font-size="14.00">PageEditClientComponent</text>
</g>
<!-- PageEditClientComponent&#45;&gt;ClientsModule -->
<g id="edge6" class="edge">
<title>PageEditClientComponent&#45;&gt;ClientsModule</title>
<path fill="none" stroke="black" d="M3490.72,-85.02C3490.72,-85.02 3490.72,-106.53 3490.72,-106.53"/>
<polygon fill="black" stroke="black" points="3487.22,-106.53 3490.72,-116.53 3494.22,-106.53 3487.22,-106.53"/>
</g>
<!-- PageListClientsComponent -->
<g id="node8" class="node">
<title>PageListClientsComponent</title>
<polygon fill="#ffffb3" stroke="black" points="3882.99,-84.8 3713.01,-84.8 3713.01,-48.8 3882.99,-48.8 3882.99,-84.8"/>
<text text-anchor="middle" x="3798" y="-62.6" font-family="Times,serif" font-size="14.00">PageListClientsComponent</text>
</g>
<!-- PageListClientsComponent&#45;&gt;ClientsModule -->
<g id="edge7" class="edge">
<title>PageListClientsComponent&#45;&gt;ClientsModule</title>
<path fill="none" stroke="black" d="M3798,-84.82C3798,-102.17 3798,-125.8 3798,-125.8 3798,-125.8 3579.7,-125.8 3579.7,-125.8"/>
<polygon fill="black" stroke="black" points="3579.7,-122.3 3569.7,-125.8 3579.7,-129.3 3579.7,-122.3"/>
</g>
<!-- ClientsRoutingModule -->
<g id="node10" class="node">
<title>ClientsRoutingModule</title>
<polygon fill="#8dd3c7" stroke="black" points="3321.34,-84.8 3318.34,-88.8 3297.34,-88.8 3294.34,-84.8 3176.66,-84.8 3176.66,-48.8 3321.34,-48.8 3321.34,-84.8"/>
<text text-anchor="middle" x="3249" y="-62.6" font-family="Times,serif" font-size="14.00">ClientsRoutingModule</text>
</g>
<!-- ClientsRoutingModule&#45;&gt;ClientsModule -->
<g id="edge8" class="edge">
<title>ClientsRoutingModule&#45;&gt;ClientsModule</title>
<path fill="none" stroke="black" d="M3249,-85.02C3249,-105.17 3249,-134.8 3249,-134.8 3249,-134.8 3460.29,-134.8 3460.29,-134.8"/>
<polygon fill="black" stroke="black" points="3460.29,-138.3 3470.29,-134.8 3460.29,-131.3 3460.29,-138.3"/>
</g>
<!-- FooterComponent -->
<g id="node11" class="node">
<title>FooterComponent</title>
<polygon fill="#ffffb3" stroke="black" points="806.88,-152.8 689.12,-152.8 689.12,-116.8 806.88,-116.8 806.88,-152.8"/>
<text text-anchor="middle" x="748" y="-130.6" font-family="Times,serif" font-size="14.00">FooterComponent</text>
</g>
<!-- FooterComponent&#45;&gt;CoreModule -->
<g id="edge9" class="edge">
<title>FooterComponent&#45;&gt;CoreModule</title>
<path fill="none" stroke="black" d="M748,-116.77C748,-99.74 748,-76.8 748,-76.8 748,-76.8 397.62,-76.8 397.62,-76.8"/>
<polygon fill="black" stroke="black" points="397.62,-73.3 387.62,-76.8 397.62,-80.3 397.62,-73.3"/>
</g>
<!-- HeaderComponent -->
<g id="node12" class="node">
<title>HeaderComponent</title>
<polygon fill="#ffffb3" stroke="black" points="670.75,-152.8 549.25,-152.8 549.25,-116.8 670.75,-116.8 670.75,-152.8"/>
<text text-anchor="middle" x="610" y="-130.6" font-family="Times,serif" font-size="14.00">HeaderComponent</text>
</g>
<!-- HeaderComponent&#45;&gt;CoreModule -->
<g id="edge10" class="edge">
<title>HeaderComponent&#45;&gt;CoreModule</title>
<path fill="none" stroke="black" d="M610,-116.52C610,-100.85 610,-80.8 610,-80.8 610,-80.8 397.33,-80.8 397.33,-80.8"/>
<polygon fill="black" stroke="black" points="397.33,-77.3 387.33,-80.8 397.33,-84.3 397.33,-77.3"/>
</g>
<!-- NavComponent -->
<g id="node13" class="node">
<title>NavComponent</title>
<polygon fill="#ffffb3" stroke="black" points="531.16,-152.8 426.84,-152.8 426.84,-116.8 531.16,-116.8 531.16,-152.8"/>
<text text-anchor="middle" x="479" y="-130.6" font-family="Times,serif" font-size="14.00">NavComponent</text>
</g>
<!-- NavComponent&#45;&gt;CoreModule -->
<g id="edge11" class="edge">
<title>NavComponent&#45;&gt;CoreModule</title>
<path fill="none" stroke="black" d="M426.83,-128.8C394.25,-128.8 358.46,-128.8 358.46,-128.8 358.46,-128.8 358.46,-95.07 358.46,-95.07"/>
<polygon fill="black" stroke="black" points="361.96,-95.07 358.46,-85.07 354.96,-95.07 361.96,-95.07"/>
</g>
<!-- IconCloseComponent -->
<g id="node20" class="node">
<title>IconCloseComponent</title>
<polygon fill="#ffffb3" stroke="black" points="4527.1,-84.8 4388.9,-84.8 4388.9,-48.8 4527.1,-48.8 4527.1,-84.8"/>
<text text-anchor="middle" x="4458" y="-62.6" font-family="Times,serif" font-size="14.00">IconCloseComponent</text>
</g>
<!-- IconsModule -->
<g id="node24" class="node">
<title>IconsModule</title>
<polygon fill="#8dd3c7" stroke="black" points="4196.88,-152.8 4193.88,-156.8 4172.88,-156.8 4169.88,-152.8 4107.12,-152.8 4107.12,-116.8 4196.88,-116.8 4196.88,-152.8"/>
<text text-anchor="middle" x="4152" y="-130.6" font-family="Times,serif" font-size="14.00">IconsModule</text>
</g>
<!-- IconCloseComponent&#45;&gt;IconsModule -->
<g id="edge18" class="edge">
<title>IconCloseComponent&#45;&gt;IconsModule</title>
<path fill="none" stroke="black" d="M4393.72,-85.08C4393.72,-106.12 4393.72,-137.8 4393.72,-137.8 4393.72,-137.8 4206.9,-137.8 4206.9,-137.8"/>
<polygon fill="black" stroke="black" points="4206.9,-134.3 4196.9,-137.8 4206.9,-141.3 4206.9,-134.3"/>
</g>
<!-- IconDeleteComponent -->
<g id="node21" class="node">
<title>IconDeleteComponent</title>
<polygon fill="#ffffb3" stroke="black" points="4371.24,-84.8 4228.76,-84.8 4228.76,-48.8 4371.24,-48.8 4371.24,-84.8"/>
<text text-anchor="middle" x="4300" y="-62.6" font-family="Times,serif" font-size="14.00">IconDeleteComponent</text>
</g>
<!-- IconDeleteComponent&#45;&gt;IconsModule -->
<g id="edge19" class="edge">
<title>IconDeleteComponent&#45;&gt;IconsModule</title>
<path fill="none" stroke="black" d="M4233.92,-84.83C4233.92,-104.38 4233.92,-132.8 4233.92,-132.8 4233.92,-132.8 4207.27,-132.8 4207.27,-132.8"/>
<polygon fill="black" stroke="black" points="4207.27,-129.3 4197.27,-132.8 4207.27,-136.3 4207.27,-129.3"/>
</g>
<!-- IconEditComponent -->
<g id="node22" class="node">
<title>IconEditComponent</title>
<polygon fill="#ffffb3" stroke="black" points="4210.54,-84.8 4081.46,-84.8 4081.46,-48.8 4210.54,-48.8 4210.54,-84.8"/>
<text text-anchor="middle" x="4146" y="-62.6" font-family="Times,serif" font-size="14.00">IconEditComponent</text>
</g>
<!-- IconEditComponent&#45;&gt;IconsModule -->
<g id="edge20" class="edge">
<title>IconEditComponent&#45;&gt;IconsModule</title>
<path fill="none" stroke="black" d="M4152,-85.02C4152,-85.02 4152,-106.53 4152,-106.53"/>
<polygon fill="black" stroke="black" points="4148.5,-106.53 4152,-116.53 4155.5,-106.53 4148.5,-106.53"/>
</g>
<!-- IconNavComponent -->
<g id="node23" class="node">
<title>IconNavComponent</title>
<polygon fill="#ffffb3" stroke="black" points="4062.53,-84.8 3933.47,-84.8 3933.47,-48.8 4062.53,-48.8 4062.53,-84.8"/>
<text text-anchor="middle" x="3998" y="-62.6" font-family="Times,serif" font-size="14.00">IconNavComponent</text>
</g>
<!-- IconNavComponent&#45;&gt;IconsModule -->
<g id="edge21" class="edge">
<title>IconNavComponent&#45;&gt;IconsModule</title>
<path fill="none" stroke="black" d="M4015.42,-85.02C4015.42,-105.17 4015.42,-134.8 4015.42,-134.8 4015.42,-134.8 4096.9,-134.8 4096.9,-134.8"/>
<polygon fill="black" stroke="black" points="4096.9,-138.3 4106.9,-134.8 4096.9,-131.3 4096.9,-138.3"/>
</g>
<!-- IconCloseComponent  -->
<g id="node25" class="node">
<title>IconCloseComponent </title>
<polygon fill="#fb8072" stroke="black" points="4380.6,-220.8 4239.4,-220.8 4239.4,-184.8 4380.6,-184.8 4380.6,-220.8"/>
<text text-anchor="middle" x="4310" y="-198.6" font-family="Times,serif" font-size="14.00">IconCloseComponent </text>
</g>
<!-- IconsModule&#45;&gt;IconCloseComponent  -->
<g id="edge22" class="edge">
<title>IconsModule&#45;&gt;IconCloseComponent </title>
<path fill="none" stroke="black" stroke-dasharray="5,2" d="M4197.16,-147.8C4242.38,-147.8 4305.29,-147.8 4305.29,-147.8 4305.29,-147.8 4305.29,-174.79 4305.29,-174.79"/>
<polygon fill="black" stroke="black" points="4301.79,-174.79 4305.29,-184.79 4308.79,-174.79 4301.79,-174.79"/>
</g>
<!-- IconDeleteComponent  -->
<g id="node26" class="node">
<title>IconDeleteComponent </title>
<polygon fill="#fb8072" stroke="black" points="4221.24,-220.8 4074.76,-220.8 4074.76,-184.8 4221.24,-184.8 4221.24,-220.8"/>
<text text-anchor="middle" x="4148" y="-198.6" font-family="Times,serif" font-size="14.00">IconDeleteComponent </text>
</g>
<!-- IconsModule&#45;&gt;IconDeleteComponent  -->
<g id="edge23" class="edge">
<title>IconsModule&#45;&gt;IconDeleteComponent </title>
<path fill="none" stroke="black" stroke-dasharray="5,2" d="M4152,-153.02C4152,-153.02 4152,-174.53 4152,-174.53"/>
<polygon fill="black" stroke="black" points="4148.5,-174.53 4152,-184.53 4155.5,-174.53 4148.5,-174.53"/>
</g>
<!-- IconEditComponent  -->
<g id="node27" class="node">
<title>IconEditComponent </title>
<polygon fill="#fb8072" stroke="black" points="4056.54,-220.8 3923.46,-220.8 3923.46,-184.8 4056.54,-184.8 4056.54,-220.8"/>
<text text-anchor="middle" x="3990" y="-198.6" font-family="Times,serif" font-size="14.00">IconEditComponent </text>
</g>
<!-- IconsModule&#45;&gt;IconEditComponent  -->
<g id="edge24" class="edge">
<title>IconsModule&#45;&gt;IconEditComponent </title>
<path fill="none" stroke="black" stroke-dasharray="5,2" d="M4106.71,-143.8C4054.07,-143.8 3974.33,-143.8 3974.33,-143.8 3974.33,-143.8 3974.33,-174.78 3974.33,-174.78"/>
<polygon fill="black" stroke="black" points="3970.83,-174.78 3974.33,-184.78 3977.83,-174.78 3970.83,-174.78"/>
</g>
<!-- IconNavComponent  -->
<g id="node28" class="node">
<title>IconNavComponent </title>
<polygon fill="#fb8072" stroke="black" points="4531.53,-220.8 4398.47,-220.8 4398.47,-184.8 4531.53,-184.8 4531.53,-220.8"/>
<text text-anchor="middle" x="4465" y="-198.6" font-family="Times,serif" font-size="14.00">IconNavComponent </text>
</g>
<!-- IconsModule&#45;&gt;IconNavComponent  -->
<g id="edge25" class="edge">
<title>IconsModule&#45;&gt;IconNavComponent </title>
<path fill="none" stroke="black" stroke-dasharray="5,2" d="M4197.19,-142.8C4283.38,-142.8 4462.77,-142.8 4462.77,-142.8 4462.77,-142.8 4462.77,-174.8 4462.77,-174.8"/>
<polygon fill="black" stroke="black" points="4459.27,-174.8 4462.77,-184.8 4466.27,-174.8 4459.27,-174.8"/>
</g>
<!-- PageForgotComponent -->
<g id="node29" class="node">
<title>PageForgotComponent</title>
<polygon fill="#ffffb3" stroke="black" points="5209.88,-84.8 5064.12,-84.8 5064.12,-48.8 5209.88,-48.8 5209.88,-84.8"/>
<text text-anchor="middle" x="5137" y="-62.6" font-family="Times,serif" font-size="14.00">PageForgotComponent</text>
</g>
<!-- LoginModule -->
<g id="node33" class="node">
<title>LoginModule</title>
<polygon fill="#8dd3c7" stroke="black" points="5102.49,-152.8 5099.49,-156.8 5078.49,-156.8 5075.49,-152.8 5009.51,-152.8 5009.51,-116.8 5102.49,-116.8 5102.49,-152.8"/>
<text text-anchor="middle" x="5056" y="-130.6" font-family="Times,serif" font-size="14.00">LoginModule</text>
</g>
<!-- PageForgotComponent&#45;&gt;LoginModule -->
<g id="edge26" class="edge">
<title>PageForgotComponent&#45;&gt;LoginModule</title>
<path fill="none" stroke="black" d="M5083.28,-85.02C5083.28,-85.02 5083.28,-106.53 5083.28,-106.53"/>
<polygon fill="black" stroke="black" points="5079.78,-106.53 5083.28,-116.53 5086.78,-106.53 5079.78,-106.53"/>
</g>
<!-- PageResetComponent -->
<g id="node30" class="node">
<title>PageResetComponent</title>
<polygon fill="#ffffb3" stroke="black" points="5045.65,-84.8 4906.35,-84.8 4906.35,-48.8 5045.65,-48.8 5045.65,-84.8"/>
<text text-anchor="middle" x="4976" y="-62.6" font-family="Times,serif" font-size="14.00">PageResetComponent</text>
</g>
<!-- PageResetComponent&#45;&gt;LoginModule -->
<g id="edge27" class="edge">
<title>PageResetComponent&#45;&gt;LoginModule</title>
<path fill="none" stroke="black" d="M5027.66,-85.02C5027.66,-85.02 5027.66,-106.53 5027.66,-106.53"/>
<polygon fill="black" stroke="black" points="5024.16,-106.53 5027.66,-116.53 5031.16,-106.53 5024.16,-106.53"/>
</g>
<!-- PageSignInComponent -->
<g id="node31" class="node">
<title>PageSignInComponent</title>
<polygon fill="#ffffb3" stroke="black" points="4887.88,-84.8 4742.12,-84.8 4742.12,-48.8 4887.88,-48.8 4887.88,-84.8"/>
<text text-anchor="middle" x="4815" y="-62.6" font-family="Times,serif" font-size="14.00">PageSignInComponent</text>
</g>
<!-- PageSignInComponent&#45;&gt;LoginModule -->
<g id="edge28" class="edge">
<title>PageSignInComponent&#45;&gt;LoginModule</title>
<path fill="none" stroke="black" d="M4815,-84.83C4815,-101.2 4815,-122.8 4815,-122.8 4815,-122.8 4999.25,-122.8 4999.25,-122.8"/>
<polygon fill="black" stroke="black" points="4999.25,-126.3 5009.25,-122.8 4999.25,-119.3 4999.25,-126.3"/>
</g>
<!-- PageSignUpComponent -->
<g id="node32" class="node">
<title>PageSignUpComponent</title>
<polygon fill="#ffffb3" stroke="black" points="4723.83,-84.8 4572.17,-84.8 4572.17,-48.8 4723.83,-48.8 4723.83,-84.8"/>
<text text-anchor="middle" x="4648" y="-62.6" font-family="Times,serif" font-size="14.00">PageSignUpComponent</text>
</g>
<!-- PageSignUpComponent&#45;&gt;LoginModule -->
<g id="edge29" class="edge">
<title>PageSignUpComponent&#45;&gt;LoginModule</title>
<path fill="none" stroke="black" d="M4648,-85.1C4648,-103.07 4648,-127.8 4648,-127.8 4648,-127.8 4999.2,-127.8 4999.2,-127.8"/>
<polygon fill="black" stroke="black" points="4999.2,-131.3 5009.2,-127.8 4999.2,-124.3 4999.2,-131.3"/>
</g>
<!-- LoginRoutingModule -->
<g id="node34" class="node">
<title>LoginRoutingModule</title>
<polygon fill="#8dd3c7" stroke="black" points="5372.11,-84.8 5369.11,-88.8 5348.11,-88.8 5345.11,-84.8 5233.89,-84.8 5233.89,-48.8 5372.11,-48.8 5372.11,-84.8"/>
<text text-anchor="middle" x="5303" y="-62.6" font-family="Times,serif" font-size="14.00">LoginRoutingModule</text>
</g>
<!-- LoginRoutingModule&#45;&gt;LoginModule -->
<g id="edge30" class="edge">
<title>LoginRoutingModule&#45;&gt;LoginModule</title>
<path fill="none" stroke="black" d="M5303,-84.82C5303,-102.17 5303,-125.8 5303,-125.8 5303,-125.8 5112.75,-125.8 5112.75,-125.8"/>
<polygon fill="black" stroke="black" points="5112.75,-122.3 5102.75,-125.8 5112.75,-129.3 5112.75,-122.3"/>
</g>
<!-- TemplatesModule -->
<g id="node35" class="node">
<title>TemplatesModule</title>
<polygon fill="#8dd3c7" stroke="black" points="5507.86,-84.8 5504.86,-88.8 5483.86,-88.8 5480.86,-84.8 5390.14,-84.8 5390.14,-48.8 5507.86,-48.8 5507.86,-84.8"/>
<text text-anchor="middle" x="5449" y="-62.6" font-family="Times,serif" font-size="14.00">TemplatesModule</text>
</g>
<!-- TemplatesModule&#45;&gt;LoginModule -->
<g id="edge31" class="edge">
<title>TemplatesModule&#45;&gt;LoginModule</title>
<path fill="none" stroke="black" d="M5429.36,-85.02C5429.36,-105.17 5429.36,-134.8 5429.36,-134.8 5429.36,-134.8 5112.53,-134.8 5112.53,-134.8"/>
<polygon fill="black" stroke="black" points="5112.53,-131.3 5102.53,-134.8 5112.53,-138.3 5112.53,-131.3"/>
</g>
<!-- TemplateContainerComponent  -->
<g id="node52" class="node">
<title>TemplateContainerComponent </title>
<polygon fill="#fb8072" stroke="black" points="5740.4,-152.8 5547.6,-152.8 5547.6,-116.8 5740.4,-116.8 5740.4,-152.8"/>
<text text-anchor="middle" x="5644" y="-130.6" font-family="Times,serif" font-size="14.00">TemplateContainerComponent </text>
</g>
<!-- TemplatesModule&#45;&gt;TemplateContainerComponent  -->
<g id="edge47" class="edge">
<title>TemplatesModule&#45;&gt;TemplateContainerComponent </title>
<path fill="none" stroke="black" stroke-dasharray="5,2" d="M5468.64,-85.05C5468.64,-107.82 5468.64,-143.8 5468.64,-143.8 5468.64,-143.8 5537.35,-143.8 5537.35,-143.8"/>
<polygon fill="black" stroke="black" points="5537.35,-147.3 5547.35,-143.8 5537.35,-140.3 5537.35,-147.3"/>
</g>
<!-- TemplateFullWidthComponent  -->
<g id="node53" class="node">
<title>TemplateFullWidthComponent </title>
<polygon fill="#fb8072" stroke="black" points="5953.75,-152.8 5758.25,-152.8 5758.25,-116.8 5953.75,-116.8 5953.75,-152.8"/>
<text text-anchor="middle" x="5856" y="-130.6" font-family="Times,serif" font-size="14.00">TemplateFullWidthComponent </text>
</g>
<!-- TemplatesModule&#45;&gt;TemplateFullWidthComponent  -->
<g id="edge48" class="edge">
<title>TemplatesModule&#45;&gt;TemplateFullWidthComponent </title>
<path fill="none" stroke="black" stroke-dasharray="5,2" d="M5508.18,-75.8C5621.06,-75.8 5856,-75.8 5856,-75.8 5856,-75.8 5856,-106.78 5856,-106.78"/>
<polygon fill="black" stroke="black" points="5852.5,-106.78 5856,-116.78 5859.5,-106.78 5852.5,-106.78"/>
</g>
<!-- PageAddOrderComponent -->
<g id="node36" class="node">
<title>PageAddOrderComponent</title>
<polygon fill="#ffffb3" stroke="black" points="1929.8,-84.8 1764.2,-84.8 1764.2,-48.8 1929.8,-48.8 1929.8,-84.8"/>
<text text-anchor="middle" x="1847" y="-62.6" font-family="Times,serif" font-size="14.00">PageAddOrderComponent</text>
</g>
<!-- OrdersModule -->
<g id="node39" class="node">
<title>OrdersModule</title>
<polygon fill="#8dd3c7" stroke="black" points="2080.65,-152.8 2077.65,-156.8 2056.65,-156.8 2053.65,-152.8 1983.35,-152.8 1983.35,-116.8 2080.65,-116.8 2080.65,-152.8"/>
<text text-anchor="middle" x="2032" y="-130.6" font-family="Times,serif" font-size="14.00">OrdersModule</text>
</g>
<!-- PageAddOrderComponent&#45;&gt;OrdersModule -->
<g id="edge32" class="edge">
<title>PageAddOrderComponent&#45;&gt;OrdersModule</title>
<path fill="none" stroke="black" d="M1847,-85.07C1847,-103.36 1847,-128.8 1847,-128.8 1847,-128.8 1972.91,-128.8 1972.91,-128.8"/>
<polygon fill="black" stroke="black" points="1972.91,-132.3 1982.91,-128.8 1972.91,-125.3 1972.91,-132.3"/>
</g>
<!-- PageEditOrderComponent -->
<g id="node37" class="node">
<title>PageEditOrderComponent</title>
<polygon fill="#ffffb3" stroke="black" points="1746.03,-84.8 1581.97,-84.8 1581.97,-48.8 1746.03,-48.8 1746.03,-84.8"/>
<text text-anchor="middle" x="1664" y="-62.6" font-family="Times,serif" font-size="14.00">PageEditOrderComponent</text>
</g>
<!-- PageEditOrderComponent&#45;&gt;OrdersModule -->
<g id="edge33" class="edge">
<title>PageEditOrderComponent&#45;&gt;OrdersModule</title>
<path fill="none" stroke="black" d="M1664,-85.09C1664,-107.01 1664,-140.8 1664,-140.8 1664,-140.8 1973.13,-140.8 1973.13,-140.8"/>
<polygon fill="black" stroke="black" points="1973.13,-144.3 1983.13,-140.8 1973.13,-137.3 1973.13,-144.3"/>
</g>
<!-- PageListOrdersComponent -->
<g id="node38" class="node">
<title>PageListOrdersComponent</title>
<polygon fill="#ffffb3" stroke="black" points="2116.42,-84.8 1947.58,-84.8 1947.58,-48.8 2116.42,-48.8 2116.42,-84.8"/>
<text text-anchor="middle" x="2032" y="-62.6" font-family="Times,serif" font-size="14.00">PageListOrdersComponent</text>
</g>
<!-- PageListOrdersComponent&#45;&gt;OrdersModule -->
<g id="edge34" class="edge">
<title>PageListOrdersComponent&#45;&gt;OrdersModule</title>
<path fill="none" stroke="black" d="M2032,-85.02C2032,-85.02 2032,-106.53 2032,-106.53"/>
<polygon fill="black" stroke="black" points="2028.5,-106.53 2032,-116.53 2035.5,-106.53 2028.5,-106.53"/>
</g>
<!-- OrdersRoutingModule -->
<g id="node40" class="node">
<title>OrdersRoutingModule</title>
<polygon fill="#8dd3c7" stroke="black" points="2282.27,-84.8 2279.27,-88.8 2258.27,-88.8 2255.27,-84.8 2139.73,-84.8 2139.73,-48.8 2282.27,-48.8 2282.27,-84.8"/>
<text text-anchor="middle" x="2211" y="-62.6" font-family="Times,serif" font-size="14.00">OrdersRoutingModule</text>
</g>
<!-- OrdersRoutingModule&#45;&gt;OrdersModule -->
<g id="edge35" class="edge">
<title>OrdersRoutingModule&#45;&gt;OrdersModule</title>
<path fill="none" stroke="black" d="M2211,-84.82C2211,-102.17 2211,-125.8 2211,-125.8 2211,-125.8 2090.91,-125.8 2090.91,-125.8"/>
<polygon fill="black" stroke="black" points="2090.91,-122.3 2080.91,-125.8 2090.91,-129.3 2090.91,-122.3"/>
</g>
<!-- SharedModule -->
<g id="node41" class="node">
<title>SharedModule</title>
<polygon fill="#8dd3c7" stroke="black" points="2399.43,-84.8 2396.43,-88.8 2375.43,-88.8 2372.43,-84.8 2300.57,-84.8 2300.57,-48.8 2399.43,-48.8 2399.43,-84.8"/>
<text text-anchor="middle" x="2350" y="-62.6" font-family="Times,serif" font-size="14.00">SharedModule</text>
</g>
<!-- SharedModule&#45;&gt;IconsModule  -->
<g id="edge42" class="edge">
<title>SharedModule&#45;&gt;IconsModule </title>
<path fill="none" stroke="black" stroke-dasharray="5,2" d="M2325.39,-84.99C2325.39,-93.08 2325.39,-100.8 2325.39,-100.8 2325.39,-100.8 1510.56,-100.8 1510.56,-100.8 1510.56,-100.8 1510.56,-106.61 1510.56,-106.61"/>
<polygon fill="black" stroke="black" points="1507.06,-106.61 1510.56,-116.61 1514.06,-106.61 1507.06,-106.61"/>
</g>
<!-- SharedModule&#45;&gt;OrdersModule -->
<g id="edge36" class="edge">
<title>SharedModule&#45;&gt;OrdersModule</title>
<path fill="none" stroke="black" d="M2350,-85.02C2350,-105.17 2350,-134.8 2350,-134.8 2350,-134.8 2090.99,-134.8 2090.99,-134.8"/>
<polygon fill="black" stroke="black" points="2090.99,-131.3 2080.99,-134.8 2090.99,-138.3 2090.99,-131.3"/>
</g>
<!-- BtnComponent  -->
<g id="node47" class="node">
<title>BtnComponent </title>
<polygon fill="#fb8072" stroke="black" points="2848.56,-152.8 2743.44,-152.8 2743.44,-116.8 2848.56,-116.8 2848.56,-152.8"/>
<text text-anchor="middle" x="2796" y="-130.6" font-family="Times,serif" font-size="14.00">BtnComponent </text>
</g>
<!-- SharedModule&#45;&gt;BtnComponent  -->
<g id="edge41" class="edge">
<title>SharedModule&#45;&gt;BtnComponent </title>
<path fill="none" stroke="black" stroke-dasharray="5,2" d="M2399.43,-70.8C2515.56,-70.8 2796,-70.8 2796,-70.8 2796,-70.8 2796,-106.63 2796,-106.63"/>
<polygon fill="black" stroke="black" points="2792.5,-106.63 2796,-116.63 2799.5,-106.63 2792.5,-106.63"/>
</g>
<!-- TableLightComponent  -->
<g id="node48" class="node">
<title>TableLightComponent </title>
<polygon fill="#fb8072" stroke="black" points="2725.53,-152.8 2578.47,-152.8 2578.47,-116.8 2725.53,-116.8 2725.53,-152.8"/>
<text text-anchor="middle" x="2652" y="-130.6" font-family="Times,serif" font-size="14.00">TableLightComponent </text>
</g>
<!-- SharedModule&#45;&gt;TableLightComponent  -->
<g id="edge43" class="edge">
<title>SharedModule&#45;&gt;TableLightComponent </title>
<path fill="none" stroke="black" stroke-dasharray="5,2" d="M2399.53,-77.8C2485.21,-77.8 2652,-77.8 2652,-77.8 2652,-77.8 2652,-106.76 2652,-106.76"/>
<polygon fill="black" stroke="black" points="2648.5,-106.76 2652,-116.76 2655.5,-106.76 2648.5,-106.76"/>
</g>
<!-- TemplatesModule  -->
<g id="node49" class="node">
<title>TemplatesModule </title>
<polygon fill="#fb8072" stroke="black" points="2560.86,-152.8 2439.14,-152.8 2439.14,-116.8 2560.86,-116.8 2560.86,-152.8"/>
<text text-anchor="middle" x="2500" y="-130.6" font-family="Times,serif" font-size="14.00">TemplatesModule </text>
</g>
<!-- SharedModule&#45;&gt;TemplatesModule  -->
<g id="edge44" class="edge">
<title>SharedModule&#45;&gt;TemplatesModule </title>
<path fill="none" stroke="black" stroke-dasharray="5,2" d="M2374.61,-85.05C2374.61,-107.82 2374.61,-143.8 2374.61,-143.8 2374.61,-143.8 2429.14,-143.8 2429.14,-143.8"/>
<polygon fill="black" stroke="black" points="2429.14,-147.3 2439.14,-143.8 2429.14,-140.3 2429.14,-147.3"/>
</g>
<!-- PageNotFoundComponent -->
<g id="node42" class="node">
<title>PageNotFoundComponent</title>
<polygon fill="#ffffb3" stroke="black" points="6795.83,-84.8 6630.17,-84.8 6630.17,-48.8 6795.83,-48.8 6795.83,-84.8"/>
<text text-anchor="middle" x="6713" y="-62.6" font-family="Times,serif" font-size="14.00">PageNotFoundComponent</text>
</g>
<!-- PageNotFoundModule -->
<g id="node43" class="node">
<title>PageNotFoundModule</title>
<polygon fill="#8dd3c7" stroke="black" points="6683.55,-152.8 6680.55,-156.8 6659.55,-156.8 6656.55,-152.8 6540.45,-152.8 6540.45,-116.8 6683.55,-116.8 6683.55,-152.8"/>
<text text-anchor="middle" x="6612" y="-130.6" font-family="Times,serif" font-size="14.00">PageNotFoundModule</text>
</g>
<!-- PageNotFoundComponent&#45;&gt;PageNotFoundModule -->
<g id="edge37" class="edge">
<title>PageNotFoundComponent&#45;&gt;PageNotFoundModule</title>
<path fill="none" stroke="black" d="M6657.06,-85.02C6657.06,-85.02 6657.06,-106.53 6657.06,-106.53"/>
<polygon fill="black" stroke="black" points="6653.56,-106.53 6657.06,-116.53 6660.56,-106.53 6653.56,-106.53"/>
</g>
<!-- PageNotFoundRoutingModule -->
<g id="node44" class="node">
<title>PageNotFoundRoutingModule</title>
<polygon fill="#8dd3c7" stroke="black" points="6606.17,-84.8 6603.17,-88.8 6582.17,-88.8 6579.17,-84.8 6417.83,-84.8 6417.83,-48.8 6606.17,-48.8 6606.17,-84.8"/>
<text text-anchor="middle" x="6512" y="-62.6" font-family="Times,serif" font-size="14.00">PageNotFoundRoutingModule</text>
</g>
<!-- PageNotFoundRoutingModule&#45;&gt;PageNotFoundModule -->
<g id="edge38" class="edge">
<title>PageNotFoundRoutingModule&#45;&gt;PageNotFoundModule</title>
<path fill="none" stroke="black" d="M6573.28,-85.02C6573.28,-85.02 6573.28,-106.53 6573.28,-106.53"/>
<polygon fill="black" stroke="black" points="6569.78,-106.53 6573.28,-116.53 6576.78,-106.53 6569.78,-106.53"/>
</g>
<!-- BtnComponent -->
<g id="node45" class="node">
<title>BtnComponent</title>
<polygon fill="#ffffb3" stroke="black" points="2974.56,-152.8 2873.44,-152.8 2873.44,-116.8 2974.56,-116.8 2974.56,-152.8"/>
<text text-anchor="middle" x="2924" y="-130.6" font-family="Times,serif" font-size="14.00">BtnComponent</text>
</g>
<!-- BtnComponent&#45;&gt;SharedModule -->
<g id="edge39" class="edge">
<title>BtnComponent&#45;&gt;SharedModule</title>
<path fill="none" stroke="black" d="M2924,-116.52C2924,-95.48 2924,-63.8 2924,-63.8 2924,-63.8 2409.44,-63.8 2409.44,-63.8"/>
<polygon fill="black" stroke="black" points="2409.44,-60.3 2399.44,-63.8 2409.44,-67.3 2409.44,-60.3"/>
</g>
<!-- TableLightComponent -->
<g id="node46" class="node">
<title>TableLightComponent</title>
<polygon fill="#ffffb3" stroke="black" points="3136.53,-152.8 2993.47,-152.8 2993.47,-116.8 3136.53,-116.8 3136.53,-152.8"/>
<text text-anchor="middle" x="3065" y="-130.6" font-family="Times,serif" font-size="14.00">TableLightComponent</text>
</g>
<!-- TableLightComponent&#45;&gt;SharedModule -->
<g id="edge40" class="edge">
<title>TableLightComponent&#45;&gt;SharedModule</title>
<path fill="none" stroke="black" d="M3065,-116.71C3065,-93.67 3065,-56.8 3065,-56.8 3065,-56.8 2409.43,-56.8 2409.43,-56.8"/>
<polygon fill="black" stroke="black" points="2409.43,-53.3 2399.43,-56.8 2409.43,-60.3 2409.43,-53.3"/>
</g>
<!-- TemplateContainerComponent -->
<g id="node50" class="node">
<title>TemplateContainerComponent</title>
<polygon fill="#ffffb3" stroke="black" points="6167.9,-152.8 5978.1,-152.8 5978.1,-116.8 6167.9,-116.8 6167.9,-152.8"/>
<text text-anchor="middle" x="6073" y="-130.6" font-family="Times,serif" font-size="14.00">TemplateContainerComponent</text>
</g>
<!-- TemplateContainerComponent&#45;&gt;TemplatesModule -->
<g id="edge45" class="edge">
<title>TemplateContainerComponent&#45;&gt;TemplatesModule</title>
<path fill="none" stroke="black" d="M6073,-116.58C6073,-96.43 6073,-66.8 6073,-66.8 6073,-66.8 5517.99,-66.8 5517.99,-66.8"/>
<polygon fill="black" stroke="black" points="5517.99,-63.3 5507.99,-66.8 5517.99,-70.3 5517.99,-63.3"/>
</g>
<!-- TemplateFullWidthComponent -->
<g id="node51" class="node">
<title>TemplateFullWidthComponent</title>
<polygon fill="#ffffb3" stroke="black" points="6377.75,-152.8 6186.25,-152.8 6186.25,-116.8 6377.75,-116.8 6377.75,-152.8"/>
<text text-anchor="middle" x="6282" y="-130.6" font-family="Times,serif" font-size="14.00">TemplateFullWidthComponent</text>
</g>
<!-- TemplateFullWidthComponent&#45;&gt;TemplatesModule -->
<g id="edge46" class="edge">
<title>TemplateFullWidthComponent&#45;&gt;TemplatesModule</title>
<path fill="none" stroke="black" d="M6282,-116.55C6282,-93.78 6282,-57.8 6282,-57.8 6282,-57.8 5517.91,-57.8 5517.91,-57.8"/>
<polygon fill="black" stroke="black" points="5517.91,-54.3 5507.91,-57.8 5517.91,-61.3 5517.91,-54.3"/>
</g>
<!-- Ui2Component -->
<g id="node54" class="node">
<title>Ui2Component</title>
<polygon fill="#ffffb3" stroke="black" points="7056.33,-84.8 6953.67,-84.8 6953.67,-48.8 7056.33,-48.8 7056.33,-84.8"/>
<text text-anchor="middle" x="7005" y="-62.6" font-family="Times,serif" font-size="14.00">Ui2Component</text>
</g>
<!-- UiModule -->
<g id="node56" class="node">
<title>UiModule</title>
<polygon fill="#8dd3c7" stroke="black" points="6926.55,-152.8 6923.55,-156.8 6902.55,-156.8 6899.55,-152.8 6853.45,-152.8 6853.45,-116.8 6926.55,-116.8 6926.55,-152.8"/>
<text text-anchor="middle" x="6890" y="-130.6" font-family="Times,serif" font-size="14.00">UiModule</text>
</g>
<!-- Ui2Component&#45;&gt;UiModule -->
<g id="edge49" class="edge">
<title>Ui2Component&#45;&gt;UiModule</title>
<path fill="none" stroke="black" d="M7023.97,-85.07C7023.97,-103.36 7023.97,-128.8 7023.97,-128.8 7023.97,-128.8 6936.61,-128.8 6936.61,-128.8"/>
<polygon fill="black" stroke="black" points="6936.61,-125.3 6926.61,-128.8 6936.61,-132.3 6936.61,-125.3"/>
</g>
<!-- UiComponent -->
<g id="node55" class="node">
<title>UiComponent</title>
<polygon fill="#ffffb3" stroke="black" points="6935.83,-84.8 6840.17,-84.8 6840.17,-48.8 6935.83,-48.8 6935.83,-84.8"/>
<text text-anchor="middle" x="6888" y="-62.6" font-family="Times,serif" font-size="14.00">UiComponent</text>
</g>
<!-- UiComponent&#45;&gt;UiModule -->
<g id="edge50" class="edge">
<title>UiComponent&#45;&gt;UiModule</title>
<path fill="none" stroke="black" d="M6890,-85.02C6890,-85.02 6890,-106.53 6890,-106.53"/>
<polygon fill="black" stroke="black" points="6886.5,-106.53 6890,-116.53 6893.5,-106.53 6886.5,-106.53"/>
</g>
<!-- Ui2Component  -->
<g id="node57" class="node">
<title>Ui2Component </title>
<polygon fill="#fb8072" stroke="black" points="6941.83,-220.8 6836.17,-220.8 6836.17,-184.8 6941.83,-184.8 6941.83,-220.8"/>
<text text-anchor="middle" x="6889" y="-198.6" font-family="Times,serif" font-size="14.00">Ui2Component </text>
</g>
<!-- UiModule&#45;&gt;Ui2Component  -->
<g id="edge51" class="edge">
<title>UiModule&#45;&gt;Ui2Component </title>
<path fill="none" stroke="black" stroke-dasharray="5,2" d="M6890,-153.02C6890,-153.02 6890,-174.53 6890,-174.53"/>
<polygon fill="black" stroke="black" points="6886.5,-174.53 6890,-184.53 6893.5,-174.53 6886.5,-174.53"/>
</g>
<!-- UiComponent  -->
<g id="node58" class="node">
<title>UiComponent </title>
<polygon fill="#fb8072" stroke="black" points="7058.33,-220.8 6959.67,-220.8 6959.67,-184.8 7058.33,-184.8 7058.33,-220.8"/>
<text text-anchor="middle" x="7009" y="-198.6" font-family="Times,serif" font-size="14.00">UiComponent </text>
</g>
<!-- UiModule&#45;&gt;UiComponent  -->
<g id="edge52" class="edge">
<title>UiModule&#45;&gt;UiComponent </title>
<path fill="none" stroke="black" stroke-dasharray="5,2" d="M6926.74,-140.8C6955.9,-140.8 6991.78,-140.8 6991.78,-140.8 6991.78,-140.8 6991.78,-174.53 6991.78,-174.53"/>
<polygon fill="black" stroke="black" points="6988.28,-174.53 6991.78,-184.53 6995.28,-174.53 6988.28,-174.53"/>
</g>
</g>
</svg>
